<svg width="785" height="191" viewBox="0 0 785 191" fill="none" xmlns="http://www.w3.org/2000/svg">
<g opacity="0.3" clip-path="url(#clip0_0_46)">
<path fill-rule="evenodd" clip-rule="evenodd" d="M89.4189 157.816C86.6238 160.495 87.4241 160.182 80.9211 158.222C75.2183 156.366 77.9232 155.751 72.8177 158.732C68.2194 161.516 60.7134 164.288 57.2196 166.445C58.5269 169.426 69.7184 179.204 72.4232 183.217C71.4202 183.728 70.62 184.145 69.5268 184.656C67.825 185.479 68.2307 185.479 66.2246 184.25C61.8292 181.675 47.7188 173.439 44.9237 172.21C41.2271 173.857 31.4219 179.007 28.0295 178.798C26.4291 178.694 23.8257 178.288 24.3329 176.223C25.6289 171.178 34.431 168.405 40.1338 165.83C42.433 164.798 41.8357 164.903 42.3315 162.328C42.9402 159.555 46.7382 139.385 47.6286 138.353C48.023 138.039 51.1224 136.705 51.731 136.392C52.0353 138.248 52.2269 140.301 52.3283 142.261L53.3313 153.686C53.3313 155.542 53.6357 157.7 53.9287 159.451C56.5321 158.117 59.1243 156.98 61.8292 155.647C75.2296 149.058 72.829 153.489 75.9283 146.077C77.7316 141.96 77.7316 139.489 81.6311 140.104C80.9211 148.351 83.1188 153.489 89.4189 157.816ZM-24.3775 78.0612C-20.771 79.1978 -21.5825 79.3022 -16.5784 74.5583C-12.183 70.4406 -14.8766 71.0554 -8.98221 71.5773C-3.78659 71.9833 4.2153 71.2642 8.31769 71.6817C8.41913 74.8714 2.3219 88.6626 1.5217 93.4994C2.62619 93.4994 3.51654 93.4994 4.72247 93.4994C6.62717 93.4994 6.22144 93.7081 7.61896 91.7479C10.5154 87.4215 19.7233 73.7347 21.8195 71.4729C25.9219 71.3686 36.8203 71.5773 39.8182 70.0347C41.2158 69.2111 43.4135 67.5641 42.1174 65.917C38.8152 62.0082 29.7201 63.3421 23.5214 63.5509C21.0194 63.5509 21.628 63.4465 20.0163 61.3935C18.3145 59.1317 6.51443 42.5567 5.31979 42.0464C4.82391 41.942 1.42026 42.0464 0.822937 42.0464C1.22867 43.9022 1.92746 45.7465 2.62622 47.6023L6.52573 58.4009C7.22449 60.048 7.92325 62.2054 8.43042 63.8524C5.53394 63.748 2.62619 63.8524 -0.371704 63.8524C-15.1696 63.8524 -11.0672 66.8334 -17.0743 61.4862C-20.3652 58.5053 -21.3683 56.3363 -24.6705 58.6097C-20.6695 65.7199 -20.4779 71.3686 -24.3775 78.0612ZM-25.9778 67.5641C-24.4789 67.3553 -23.9717 69.7215 -25.6848 70.0347L-28.0854 70.3478C-29.5844 70.661 -30.193 68.1904 -28.4911 67.8773L-25.9778 67.5641ZM-238.356 232.223C-239.156 233.87 -241.354 232.629 -240.655 231.191L-240.057 229.857C-239.257 228.314 -237.06 229.544 -237.86 230.993L-238.356 232.223ZM-234.558 224.092C-235.358 225.635 -237.555 224.51 -236.755 222.955L-235.651 220.693C-234.952 219.151 -232.754 220.38 -233.453 221.819L-234.558 224.092ZM-230.061 215.033C-230.759 216.471 -233.059 215.439 -232.258 213.897L-231.064 211.635C-230.365 210.196 -228.167 211.229 -228.866 212.876L-230.061 215.033ZM-225.26 206.183C-226.161 207.726 -228.257 206.288 -227.457 204.942L-226.161 202.68C-225.26 201.138 -223.265 202.576 -224.065 203.91L-225.26 206.183ZM-220.256 197.438C-221.157 198.876 -223.253 197.542 -222.352 196.104L-221.056 193.946C-220.256 192.508 -218.058 193.842 -218.959 195.28L-220.256 197.438ZM-214.958 188.796C-215.759 190.13 -217.956 188.901 -217.055 187.463L-215.657 185.305C-214.857 183.971 -212.659 185.201 -213.662 186.743L-214.958 188.796ZM-209.459 180.457C-210.462 181.791 -212.355 180.248 -211.453 178.914L-210.056 176.861C-209.053 175.527 -207.058 177.07 -208.061 178.404L-209.459 180.457ZM-203.666 172.221C-204.669 173.555 -206.562 172.013 -205.57 170.679L-204.071 168.626C-203.068 167.292 -201.175 168.939 -202.178 170.168L-203.666 172.221ZM-197.861 164.508C-198.763 165.019 -199.856 164.195 -199.766 163.174C-199.868 162.56 -199.372 161.736 -198.662 161.632L-197.861 160.599C-196.858 159.37 -194.864 160.912 -195.957 162.246L-196.16 162.56L-195.765 162.664C-194.165 163.279 -195.168 165.645 -196.667 165.03L-197.861 164.508ZM-191.156 156.482C-192.362 157.723 -194.052 155.971 -192.959 154.73L-191.358 152.874C-190.164 151.541 -188.462 153.385 -189.555 154.521L-191.156 156.482ZM-184.461 148.966C-185.566 150.195 -187.459 148.455 -186.264 147.214L-184.562 145.358C-183.458 144.129 -181.666 145.869 -182.759 147.11L-184.461 148.966ZM-177.564 141.763C-178.86 142.899 -180.46 140.939 -179.265 139.907L-177.564 138.155C-176.268 136.914 -174.667 138.874 -175.76 140.011L-177.564 141.763ZM-170.362 134.768C-171.568 135.905 -173.258 134.049 -172.064 132.913L-170.159 131.161C-168.964 130.024 -167.263 131.985 -168.559 133.121L-170.362 134.768ZM-162.969 128.18C-164.073 129.213 -165.764 127.357 -164.467 126.232L-162.563 124.585C-161.165 123.448 -159.768 125.617 -161.064 126.545L-162.969 128.18ZM-155.169 121.801C-156.567 122.833 -157.965 120.769 -156.668 119.841L-154.764 118.298C-153.366 117.266 -151.969 119.33 -153.265 120.258L-155.169 121.801ZM-147.269 115.827C-148.464 116.755 -150.064 114.795 -148.667 113.774C-147.968 113.264 -147.269 112.742 -146.57 112.336C-145.376 111.408 -143.775 113.368 -145.173 114.389C-145.86 114.899 -146.559 115.317 -147.269 115.827ZM-139.064 110.167C-140.462 111.095 -141.668 108.833 -140.36 108.01L-138.264 106.676C-136.866 105.748 -135.559 108.01 -136.968 108.833L-139.064 110.167ZM-130.668 104.924C-131.964 105.748 -133.361 103.59 -131.862 102.663L-129.665 101.433C-128.369 100.61 -126.971 102.767 -128.47 103.695L-130.668 104.924ZM-121.967 99.9832C-123.567 100.807 -124.571 98.4405 -123.173 97.7214L-120.975 96.4919C-119.476 95.7728 -118.372 98.1389 -119.769 98.8581L-121.967 99.9832ZM-113.165 95.4596C-114.562 96.1787 -115.768 93.9169 -114.27 93.0934C-113.469 92.7802 -112.771 92.3743 -111.97 92.0611C-110.573 91.342 -109.468 93.6038 -110.967 94.3229C-111.666 94.7289 -112.466 95.042 -113.165 95.4596ZM-104.171 91.2376C-105.772 91.8523 -106.572 89.4861 -105.174 88.8714L-102.875 87.8391C-101.275 87.2243 -100.475 89.6833 -101.974 90.2053L-104.171 91.2376ZM-95.0649 87.4215C-96.5638 88.0363 -97.4655 85.6701 -95.9665 85.0553L-93.5659 84.1274C-92.1684 83.5127 -91.1654 85.8788 -92.7657 86.4936L-95.0649 87.4215ZM-85.7669 83.9302C-87.2658 84.4406 -88.1674 82.0744 -86.5671 81.564C-85.7669 81.2509 -84.9667 80.9493 -84.1665 80.7405C-82.769 80.1258 -81.8674 82.492 -83.4677 83.1067C-84.2679 83.4083 -84.9667 83.6171 -85.7669 83.9302ZM-76.3674 80.8449C-78.0692 81.2509 -78.5651 78.7919 -77.0662 78.3743L-74.6656 77.6552C-73.0652 77.2492 -72.4679 79.7082 -74.0683 80.1258L-76.3674 80.8449ZM-66.8665 78.0612C-68.4669 78.4787 -69.0642 76.0081 -67.4639 75.5906L-65.0633 74.9758C-63.5643 74.5699 -62.8656 77.0288 -64.466 77.4464L-66.8665 78.0612ZM-57.2755 75.695C-58.7745 76.1009 -59.5746 73.642 -57.8728 73.12L-55.3708 72.6096C-53.669 72.2965 -53.3647 74.8714 -54.8749 75.0802L-57.2755 75.695ZM-47.6732 73.5376C-49.2736 73.8507 -49.6681 71.3802 -48.0677 71.067L-45.6671 70.661C-43.9653 70.3478 -43.5708 72.8184 -45.1712 73.1316L-47.6732 73.5376ZM-37.8793 71.7861C-39.4797 72.0993 -39.9756 69.6287 -38.2738 69.3155L-35.8732 68.9096C-34.2728 68.5964 -33.7769 71.1714 -35.4787 71.4845L-37.8793 71.7861ZM-370.849 171.398C-373.656 174.077 -372.844 173.764 -379.347 171.711C-385.05 169.96 -382.345 169.241 -387.451 172.326C-392.049 175.005 -399.555 177.882 -403.049 180.039C-401.753 183.02 -390.55 192.798 -387.845 196.811C-388.848 197.322 -389.648 197.635 -390.742 198.145C-392.443 199.073 -392.038 199.073 -394.044 197.832C-398.439 195.257 -412.538 186.917 -415.345 185.792C-419.041 187.439 -428.847 192.589 -432.239 192.38C-433.839 192.276 -436.443 191.766 -435.936 189.701C-434.639 184.656 -425.837 181.883 -420.135 179.308C-417.835 178.276 -418.433 178.485 -417.937 175.91C-417.34 173.033 -413.53 152.967 -412.64 151.935C-412.336 151.622 -409.146 150.183 -408.537 149.975C-408.233 151.831 -408.03 153.779 -407.94 155.739L-406.937 167.269C-406.937 169.02 -406.633 171.282 -406.34 172.929C-403.736 171.688 -401.144 170.458 -398.439 169.229C-385.039 162.641 -387.541 167.072 -384.34 159.66C-382.537 155.542 -382.638 153.072 -378.637 153.686C-379.347 161.933 -377.15 167.083 -370.849 171.398ZM-373.746 161.214C-375.245 161.724 -374.648 164.091 -372.946 163.685L-370.647 162.861C-369.249 162.444 -369.745 159.985 -371.447 160.391L-373.746 161.214ZM-113.266 216.576C-111.97 217.713 -110.573 215.648 -111.767 214.627L-112.771 213.804C-114.168 212.667 -115.566 214.732 -114.371 215.764L-113.266 216.576ZM-120.164 210.916C-118.868 211.948 -117.369 209.988 -118.563 208.955L-120.558 207.308C-121.854 206.276 -123.353 208.341 -122.057 209.361L-120.164 210.916ZM-127.963 204.745C-126.768 205.777 -125.168 203.817 -126.464 202.692L-128.459 201.149C-129.755 200.221 -131.355 202.182 -129.958 203.214L-127.963 204.745ZM-135.965 198.771C-134.567 199.804 -133.26 197.542 -134.567 196.718L-136.664 195.28C-138.061 194.248 -139.368 196.521 -138.061 197.333L-135.965 198.771ZM-144.17 193.111C-142.772 194.039 -141.465 191.882 -142.772 190.954L-144.868 189.62C-146.266 188.692 -147.663 190.757 -146.266 191.685L-144.17 193.111ZM-152.465 187.66C-151.169 188.483 -149.771 186.43 -151.27 185.502L-153.366 184.168C-154.662 183.345 -156.06 185.398 -154.662 186.326L-152.465 187.66ZM-161.064 182.51C-159.464 183.333 -158.46 181.071 -159.768 180.248L-161.965 179.018C-163.464 178.195 -164.569 180.457 -163.16 181.28L-161.064 182.51ZM-169.663 177.673C-168.164 178.392 -167.161 176.13 -168.559 175.411L-170.756 174.17C-172.255 173.451 -173.36 175.713 -171.861 176.432L-169.663 177.673ZM-178.567 173.149C-177.068 173.869 -175.963 171.607 -177.473 170.783L-179.671 169.751C-181.069 169.032 -182.275 171.189 -180.776 172.013L-178.567 173.149ZM-187.459 168.927C-185.859 169.542 -185.058 167.176 -186.557 166.561L-188.856 165.529C-190.355 164.914 -191.257 167.28 -189.758 167.895L-187.459 168.927ZM-205.863 161.516C-204.162 162.026 -203.666 159.555 -205.063 159.149L-207.464 158.326C-209.166 157.816 -209.661 160.286 -208.264 160.692L-205.863 161.516ZM-215.263 158.43C-213.764 158.941 -213.065 156.47 -214.564 155.96L-216.965 155.241C-218.565 154.823 -219.264 157.294 -217.663 157.711L-215.263 158.43ZM-224.764 155.763C-223.366 156.169 -222.465 153.814 -224.166 153.292L-226.567 152.677C-228.37 152.271 -228.663 154.835 -227.164 155.148L-224.764 155.763ZM-234.355 153.396C-232.754 153.71 -232.36 151.239 -233.859 150.926L-236.361 150.415C-237.961 150.102 -238.457 152.573 -236.868 152.886L-234.355 153.396ZM-244.058 151.541C-242.56 151.854 -241.962 149.383 -243.664 148.966C-244.464 148.861 -245.366 148.652 -246.166 148.56C-247.665 148.246 -248.262 150.717 -246.56 151.135C-245.76 151.227 -244.859 151.332 -244.058 151.541ZM-253.852 149.998C-252.151 150.207 -251.948 147.632 -253.548 147.527L-255.949 147.214C-257.65 147.005 -257.853 149.58 -256.253 149.685L-253.852 149.998ZM-263.658 148.966C-262.057 149.07 -261.753 146.599 -263.455 146.391L-265.957 146.182C-267.456 145.973 -267.85 148.548 -266.058 148.757L-263.658 148.966ZM-273.451 148.246C-271.75 148.351 -271.851 145.776 -273.35 145.776L-275.852 145.671C-277.554 145.567 -277.554 148.142 -275.953 148.142L-273.451 148.246ZM-283.358 148.038C-281.758 148.038 -281.656 145.463 -283.358 145.463C-284.158 145.463 -285.06 145.463 -285.86 145.463C-287.359 145.463 -287.562 148.038 -285.86 148.038C-284.947 148.038 -284.158 148.038 -283.358 148.038ZM-293.253 148.246C-291.45 148.038 -291.754 145.567 -293.355 145.671L-295.755 145.776C-297.457 145.88 -297.254 148.455 -295.654 148.351L-293.253 148.246ZM-303.047 148.757C-301.447 148.652 -301.65 146.077 -303.25 146.182L-305.752 146.391C-307.353 146.495 -307.15 149.07 -305.549 148.966L-303.047 148.757ZM-312.852 149.685C-311.353 149.58 -311.455 147.005 -313.157 147.214C-313.957 147.319 -314.859 147.423 -315.659 147.527C-317.158 147.632 -317.056 150.207 -315.354 149.998C-314.554 149.893 -313.754 149.789 -312.852 149.685ZM-322.646 151.019C-320.945 150.705 -321.542 148.246 -323.041 148.548L-325.554 148.861C-327.154 149.279 -326.659 151.749 -325.16 151.436L-322.646 151.019ZM-332.452 152.77C-330.851 152.457 -331.246 149.893 -332.846 150.195L-335.348 150.705C-336.847 151.019 -336.452 153.489 -334.852 153.176L-332.452 152.77ZM-342.054 154.73C-340.555 154.521 -340.949 151.958 -342.651 152.26L-345.052 152.874C-346.754 153.292 -345.953 155.751 -344.454 155.345L-342.054 154.73ZM-351.645 157.201C-350.044 156.69 -350.743 154.22 -352.344 154.73L-354.744 155.345C-356.345 155.751 -355.646 158.222 -354.045 157.816L-351.645 157.201ZM-361.247 159.88C-359.647 159.474 -360.244 156.899 -361.946 157.41L-364.245 158.129C-365.744 158.535 -365.248 161.005 -363.546 160.599L-361.247 159.88ZM86.5112 147.632C85.0122 148.142 85.6095 150.508 87.3113 150.102L89.6105 149.279C91.008 148.861 90.6135 146.402 88.8103 146.913L86.5112 147.632ZM346.991 203.098C348.287 204.13 349.786 202.066 348.49 201.138L347.487 200.21C346.089 199.073 344.692 201.242 345.886 202.17L346.991 203.098ZM340.093 197.438C341.401 198.47 342.888 196.405 341.694 195.385L339.688 193.842C338.391 192.81 336.881 194.77 338.189 195.802L340.093 197.438ZM332.294 191.163C333.489 192.195 335.089 190.235 333.793 189.202L331.798 187.66C330.502 186.627 328.902 188.588 330.299 189.713L332.294 191.163ZM324.292 185.294C325.69 186.221 326.997 184.064 325.69 183.136L323.695 181.698C322.196 180.77 320.889 182.939 322.297 183.855L324.292 185.294ZM316.099 179.529C317.496 180.457 318.792 178.299 317.496 177.371L315.4 176.038C314.003 175.11 312.695 177.279 314.002 178.195L316.099 179.529ZM307.793 174.077C309.1 175.005 310.497 172.941 309.1 171.92L306.902 170.586C305.708 169.762 304.208 171.816 305.707 172.848L307.793 174.077ZM299.295 168.927C300.794 169.751 301.797 167.489 300.501 166.77L298.303 165.436C296.804 164.717 295.699 166.979 297.108 167.698L299.295 168.927ZM290.605 164.091C292.104 164.81 293.209 162.652 291.698 161.829L289.501 160.692C288.002 159.869 286.999 162.235 288.396 162.954L290.605 164.091ZM281.702 159.567C283.201 160.286 284.305 158.024 282.806 157.305L280.609 156.169C279.211 155.449 278.016 157.711 279.504 158.43L281.702 159.567ZM272.798 155.345C274.399 155.96 275.199 153.594 273.7 152.979L271.502 151.947C269.902 151.332 269 153.802 270.499 154.313L272.798 155.345ZM263.602 151.541C265.101 152.155 266.092 149.789 264.503 149.07L262.204 148.246C260.705 147.632 259.804 149.998 261.302 150.613L263.602 151.541ZM254.405 148.038C256.107 148.548 256.603 145.985 255.205 145.567L252.805 144.744C251.103 144.233 250.607 146.704 252.004 147.214L254.405 148.038ZM245.006 144.848C246.606 145.358 247.203 142.899 245.704 142.482L243.304 141.763C241.703 141.252 241.005 143.723 242.605 144.129L245.006 144.848ZM235.505 142.18C236.902 142.586 237.804 140.22 236.102 139.71L233.701 139.095C231.898 138.689 231.594 141.252 233.104 141.565L235.505 142.18ZM225.902 139.907C227.503 140.22 227.897 137.645 226.398 137.332L223.896 136.821C222.296 136.508 221.89 138.979 223.502 139.292L225.902 139.907ZM216.21 137.958C217.709 138.271 218.317 135.801 216.604 135.488C215.804 135.279 215.004 135.174 214.102 134.977C212.705 134.768 212.006 137.239 213.708 137.552C214.609 137.645 215.41 137.854 216.21 137.958ZM206.405 136.415C208.107 136.624 208.31 134.154 206.709 133.945L204.308 133.632C202.607 133.423 202.404 135.998 204.004 136.102L206.405 136.415ZM196.611 135.383C198.211 135.592 198.504 133.017 196.814 132.808L194.312 132.599C192.813 132.495 192.407 134.966 194.21 135.174L196.611 135.383ZM186.806 134.768C188.508 134.768 188.406 132.193 186.907 132.193L184.405 132.089C182.703 132.089 182.703 134.56 184.304 134.664L186.806 134.768ZM176.91 134.455C178.511 134.455 178.612 131.985 176.91 131.88C176.11 131.88 175.208 131.88 174.408 131.88C172.909 131.88 172.706 134.455 174.408 134.455C175.31 134.455 176.11 134.455 176.91 134.455ZM167.015 134.664C168.818 134.56 168.514 131.985 166.914 132.089L164.513 132.193C162.811 132.298 163.014 134.873 164.614 134.768L167.015 134.664ZM157.21 135.174C158.81 135.07 158.709 132.495 157.007 132.704L154.505 132.913C152.905 133.017 153.107 135.488 154.708 135.383L157.21 135.174ZM147.416 136.207C148.915 135.998 148.813 133.423 147.112 133.632C146.311 133.736 145.41 133.841 144.61 133.945C143.111 134.049 143.212 136.624 144.914 136.415C145.714 136.311 146.514 136.207 147.416 136.207ZM137.611 137.436C139.313 137.123 138.704 134.664 137.216 134.966L134.714 135.372C133.114 135.685 133.61 138.155 135.109 137.842L137.611 137.436ZM127.806 139.188C129.406 138.874 129.012 136.415 127.411 136.717L124.92 137.123C123.421 137.436 123.816 140 125.416 139.698L127.806 139.188ZM118.215 141.252C119.714 140.939 119.319 138.376 117.617 138.782L115.217 139.292C113.515 139.802 114.315 142.18 115.814 141.763L118.215 141.252ZM108.612 143.618C110.213 143.108 109.514 140.742 108.015 141.148L105.513 141.763C103.913 142.273 104.611 144.639 106.212 144.233L108.612 143.618ZM99.1113 146.286C100.61 145.88 100.013 143.41 98.4126 143.816L96.012 144.535C94.5131 144.941 95.009 147.516 96.7108 147.005L99.1113 146.286Z" fill="#CCCCCC"/>
</g>
<defs>
<clipPath id="clip0_0_46">
<rect width="785" height="191" fill="white"/>
</clipPath>
</defs>
</svg>
