<svg width="32" height="29" viewBox="0 0 32 29" fill="none" xmlns="http://www.w3.org/2000/svg">
<path d="M26.454 27.13L23.6341 28.35L12.3641 20.49L9.36407 22.15C6.95407 23.59 4.61408 23.69 3.49408 23.05L3.26404 23.16C1.52404 23.92 0.494043 23.24 0.144043 22.42C-0.205957 21.6 -0.00592995 20.42 1.73407 19.64L1.96405 19.54C2.17405 18.54 3.0841 16.86 6.63409 15.87L9.90405 14.82L11.9041 1.22998L14.7241 0L16.9141 12.59L24.9741 9.82999L26.1941 6.59998L28.4341 5.76999L28.5941 8.76999L29.394 8.69998L30.1241 10.37L29.524 10.96L31.644 13.16L29.5041 14.23L26.3241 12.91L18.7941 16.91L26.454 27.13ZM26.2441 12.18L29.4441 13.51L30.4441 12.99L28.5041 10.99L29.2341 10.25L28.894 9.45999L27.894 9.54999L27.7441 6.75L26.6541 7.14999L25.4341 10.39L16.3141 13.5L14.144 0.98999L12.454 1.72L10.5041 15.36L6.81409 16.54C3.37409 17.49 2.69406 19.03 2.59406 19.86V20.07L2.39404 20.14C2.26699 20.1762 2.14323 20.223 2.02405 20.28C0.954048 20.74 0.474058 21.47 0.784058 22.17C1.09406 22.87 1.94404 23.03 3.01404 22.56C3.13444 22.5114 3.25142 22.4546 3.36407 22.39L3.55408 22.28L3.73407 22.41C4.46407 22.95 6.59408 23.05 9.05408 21.59L12.4141 19.71L23.7141 27.6L25.4041 26.87L17.7441 16.73L26.2441 12.18Z" fill="#999999"/>
</svg>
